<?xml version="1.0" encoding="UTF-8"?>
<!DOCTYPE svg PUBLIC "-//W3C//DTD SVG 1.1//EN" "http://www.w3.org/Graphics/SVG/1.1/DTD/svg11.dtd">
<!-- Creator: CorelDRAW X7 -->
<svg xmlns="http://www.w3.org/2000/svg" xml:space="preserve" width="100%" height="100%" version="1.1" style="shape-rendering:geometricPrecision; text-rendering:geometricPrecision; image-rendering:optimizeQuality; fill-rule:evenodd; clip-rule:evenodd"
viewBox="0 0 15484 6344"
 xmlns:xlink="http://www.w3.org/1999/xlink">
 <defs>
  <style type="text/css">
   <![CDATA[
    .fil0 {fill:#AEAA36}
    .fil1 {fill:#316DAC;fill-rule:nonzero}
   ]]>
  </style>
 </defs>
 <g id="Layer_x0020_1">
  <metadata id="CorelCorpID_0Corel-Layer"/>
  <g id="_140653793264">
   <path class="fil0" d="M9944 6093l-51 78c65,-11 121,-34 160,-83l-109 5zm-1008 20l94 10 -94 -10c-273,27 -1329,-214 -1608,-316l-369 -141c-144,-50 -744,-380 -865,-481 -59,-49 -96,-85 -140,-148 -401,-575 164,-1311 792,-1118 350,108 396,324 468,394 55,52 829,428 888,414 154,-110 251,-211 463,-126 184,73 226,234 301,399 327,75 621,160 959,213 1116,176 2121,134 3232,-141 555,-137 1720,-586 1960,-1119 186,-412 -244,-557 -570,-607 -381,-59 -678,-23 -1037,-22 94,-23 389,-28 537,-37 275,-18 1295,7 1204,518 -25,140 -138,279 -239,381 -485,488 -1350,797 -2010,971 -976,257 -2105,303 -3101,153 -159,-24 -312,-51 -470,-80 -144,-26 -309,-84 -449,-103l10 125 115 38 80 16 -80 -16 -116 -11 -47 217c2,-75 14,-154 -2,-230 -169,-69 -888,-207 -1200,-405l-365 -194c-15,54 -17,115 -36,172 -16,52 -43,99 -63,149 131,129 941,396 1179,462 148,40 1192,259 1265,243 -99,9 -541,-53 -661,-75 -216,-41 -421,-79 -637,-124 -562,-117 -1130,-414 -1200,-429l-73 90c369,272 1333,525 1800,628 -412,-21 -1250,-272 -1663,-484 -59,-30 -150,-68 -197,-95l-191 103c453,209 996,414 1483,507 278,54 518,98 799,135 173,23 688,73 842,45 46,-88 187,-311 166,-458 22,141 -23,333 -80,465l137 -2c57,-74 139,-259 134,-349l-12 182c184,68 1293,-85 1546,-134 844,-163 1011,-298 1714,-516 -106,80 -669,286 -835,345 -555,196 -1105,307 -1690,345l-744 -4 -37 123c100,37 779,-45 933,-65 322,-43 661,-103 976,-185 688,-180 1348,-402 1971,-749 439,-245 1120,-664 1262,-1162 98,-342 -260,-494 -524,-538 -203,-34 -708,-66 -889,-30 -40,8 -62,10 -36,2 196,-57 716,-36 934,-13 274,30 668,156 632,506 -49,466 -877,1029 -1268,1244 -1072,590 -2341,979 -3570,1067 -120,9 -380,12 -482,33 -36,22 -116,226 -378,201 -159,-15 -300,234 -618,-240 -86,-11 -792,-110 -802,-107 -42,-26 -405,-108 -488,-130 -158,-41 -313,-86 -463,-144 -221,-86 -455,-166 -671,-270 -100,-48 -109,-73 -230,-60 329,249 1487,645 1831,654 66,49 481,75 593,118zm-2079 -1807l-68 -52 68 52c89,52 142,186 150,290 7,100 -61,235 -46,265 51,-10 216,-312 -93,-664 118,43 198,220 217,343 31,198 -56,295 -63,359 53,-20 69,-74 90,-169 15,-69 17,-141 9,-210 -30,-246 -97,-240 -203,-406 171,73 294,387 243,628 -15,71 -51,136 -61,196 80,-73 112,-256 104,-376 -10,-157 -69,-295 -175,-412 -246,-269 -702,-237 -729,-109 18,180 182,207 296,266 62,32 119,60 173,105 72,59 80,102 130,156 6,-68 -50,-119 -67,-169 140,106 94,273 100,398 78,-248 50,-270 -75,-491zm-184 268c113,190 -24,383 -197,341 246,-115 183,-116 197,-341zm7336 297c-330,209 -1060,464 -1455,561 -361,88 -683,132 -1051,141 -65,2 -254,9 -313,-14 83,-19 238,-18 332,-25 114,-8 225,-21 338,-36 526,-71 951,-176 1452,-354 225,-80 486,-209 697,-273zm-4384 1217c31,45 50,49 102,67l85 -66 -187 -1zm-349 -20c77,92 197,146 322,122l-74 -112 -248 -10zm-526 -1117c-76,-235 -339,-300 -549,-200 26,34 479,193 549,200zm-1838 189l-233 99c62,28 209,-42 233,-99zm53 -46c44,7 87,-50 86,-95l-86 95zm-113 9c-51,-28 -112,21 -186,38 -67,16 -115,8 -169,20l110 52c80,-15 196,-44 245,-110zm38 -54c51,17 93,-42 94,-89 -35,18 -76,53 -94,89zm-72 -45c53,22 104,-34 98,-80 -33,-11 -79,54 -98,80zm1992 94c-115,-44 -282,-95 -398,-127 -358,-98 -800,-319 -1139,-472 -12,108 72,107 145,158 280,196 1144,534 1429,568l-37 -127zm-2037 -47c-85,-25 -255,152 -515,-37 -135,-97 -222,-366 -360,-357 -32,231 211,564 582,602l-83 -27c19,-42 10,-18 -91,-100 -41,-34 -93,-70 -121,-107 105,21 144,88 277,104 91,11 264,1 311,-78zm-871 -433c61,8 108,24 150,76l-66 -92 -84 16zm260 -539c-152,90 -230,259 -263,422 121,40 105,-9 218,104 65,66 98,152 163,220 350,366 744,-196 221,-398 -183,-71 -298,-125 -339,-348zm272 218c-79,-45 -177,-143 -164,-246 -75,94 82,222 164,246z"/>
   <path class="fil1" d="M5 3020l0 -604c145,166 284,286 416,360 133,73 274,110 423,110 159,0 285,-37 376,-112 92,-74 138,-174 138,-301 0,-104 -30,-196 -92,-274 -62,-79 -210,-193 -444,-341 -363,-234 -590,-416 -683,-544 -93,-129 -139,-282 -139,-459 0,-250 89,-455 265,-615 177,-160 405,-240 683,-240 124,0 246,18 366,54 120,36 242,92 364,167l0 522c-141,-114 -270,-196 -390,-248 -119,-51 -238,-77 -357,-77 -145,0 -262,36 -353,107 -91,71 -136,163 -136,275 0,159 189,356 565,592l69 41c308,192 510,360 605,506 95,146 142,327 142,542 0,245 -88,447 -266,607 -178,159 -405,239 -682,239 -173,0 -329,-24 -468,-73 -140,-49 -274,-126 -402,-234z"/>
   <polygon id="1" class="fil1" points="2350,3271 2350,61 2810,61 2810,1504 4150,61 4728,61 3334,1567 4996,3271 4356,3271 2810,1683 2810,3271 "/>
   <path id="2" class="fil1" d="M6910 3047c-141,90 -285,158 -435,204 -148,44 -303,67 -462,67 -334,0 -601,-103 -801,-311 -200,-208 -299,-484 -299,-830 0,-317 96,-574 288,-772 192,-197 442,-296 751,-296 306,0 548,100 727,301 179,200 269,471 269,812l0 62 -1589 0c13,201 79,357 198,470 119,113 278,169 479,169 135,0 275,-25 421,-74 146,-50 297,-126 453,-227l0 425zm-1551 -1064l1123 0c-14,-155 -69,-279 -167,-372 -98,-93 -221,-140 -368,-140 -162,0 -293,43 -393,130 -99,86 -164,214 -195,382z"/>
   <path id="3" class="fil1" d="M9203 3047c-141,90 -285,158 -435,204 -149,44 -303,67 -462,67 -335,0 -602,-103 -801,-311 -200,-208 -300,-484 -300,-830 0,-317 97,-574 289,-772 192,-197 441,-296 751,-296 305,0 548,100 727,301 179,200 268,471 268,812l0 62 -1588 0c12,201 78,357 197,470 119,113 279,169 480,169 134,0 275,-25 421,-74 146,-50 297,-126 453,-227l0 425zm-1551 -1064l1123 0c-14,-155 -70,-279 -168,-372 -97,-93 -220,-140 -367,-140 -162,0 -294,43 -393,130 -100,86 -165,214 -195,382z"/>
   <path id="4" class="fil1" d="M10071 1616l0 1188c69,51 139,88 210,112 72,24 148,35 228,35 216,0 386,-65 509,-198 124,-132 186,-314 186,-545 0,-229 -62,-410 -186,-540 -123,-131 -293,-197 -509,-197 -80,0 -156,12 -228,34 -71,23 -141,60 -210,111zm-427 2722l0 -3187 427 0 0 119c80,-57 164,-98 253,-126 89,-26 187,-40 293,-40 307,0 556,103 749,308 193,205 289,471 289,797 0,326 -96,591 -289,796 -193,206 -442,308 -749,308 -109,0 -209,-12 -297,-38 -87,-25 -170,-65 -249,-121l0 1184 -427 0z"/>
   <polygon id="5" class="fil1" points="12623,2853 11731,1151 12200,1151 12854,2392 13465,1151 13926,1151 12352,4338 11891,4338 "/>
  </g>
 </g>
</svg>
